<?xml version="1.0" encoding="UTF-8"?> <svg xmlns="http://www.w3.org/2000/svg" xmlns:xlink="http://www.w3.org/1999/xlink" width="976.946" height="601.291" viewBox="0 0 976.946 601.291"><defs><clipPath id="clip-path"><rect id="Rectangle_301" data-name="Rectangle 301" width="873" height="150.037" fill="#fff" stroke="#707070" stroke-width="1"></rect></clipPath></defs><g id="ILLUSTRATION_-_desk" data-name="ILLUSTRATION - desk" transform="translate(-740.201 -178.862)"><path id="WAVY_SHAPE" data-name="WAVY SHAPE" d="M1111.3,718.125H220.2c-114.432-120.6-61.177-184.827-19.481-213.376,57.005-39.032,14.975-83.713,51.945-148.536S363.41,228.546,507.943,185.99s182.968,115.965,259.076,145.1c39.271,15.035,267.83-58.915,299.154,20.067s-39.447,167.917-11.308,189.964C1097.193,574.286,1158.133,668.733,1111.3,718.125Z" transform="translate(588.948 62.028)" fill="#efefef"></path><g id="DETAIL" transform="translate(1387.937 366.561)"><g id="Group_85" data-name="Group 85" transform="translate(24.801)"><rect id="Rectangle_76" data-name="Rectangle 76" width="2.662" height="7.466" fill="#691a5a"></rect><rect id="Rectangle_77" data-name="Rectangle 77" width="2.662" height="7.466" transform="translate(0 44.797)" fill="#691a5a"></rect></g><g id="Group_86" data-name="Group 86" transform="translate(11.914 2.835)"><rect id="Rectangle_78" data-name="Rectangle 78" width="2.662" height="7.466" transform="matrix(0.866, -0.5, 0.5, 0.866, 0, 1.331)" fill="#691a5a"></rect><rect id="Rectangle_79" data-name="Rectangle 79" width="2.662" height="7.466" transform="matrix(0.866, -0.5, 0.5, 0.866, 22.399, 40.127)" fill="#691a5a"></rect></g><g id="Group_87" data-name="Group 87" transform="translate(2.836 11.913)"><rect id="Rectangle_80" data-name="Rectangle 80" width="2.662" height="7.467" transform="translate(0 2.306) rotate(-59.999)" fill="#691a5a"></rect><rect id="Rectangle_81" data-name="Rectangle 81" width="2.662" height="7.467" transform="matrix(0.5, -0.866, 0.866, 0.5, 38.795, 24.704)" fill="#691a5a"></rect></g><g id="Group_88" data-name="Group 88" transform="translate(0 24.801)"><rect id="Rectangle_82" data-name="Rectangle 82" width="7.467" height="2.662" fill="#691a5a"></rect><rect id="Rectangle_83" data-name="Rectangle 83" width="7.467" height="2.662" transform="translate(44.797)" fill="#691a5a"></rect></g><g id="Group_89" data-name="Group 89" transform="translate(2.836 11.913)"><rect id="Rectangle_84" data-name="Rectangle 84" width="7.467" height="2.662" transform="translate(0 26.131) rotate(-29.994)" fill="#691a5a"></rect><rect id="Rectangle_85" data-name="Rectangle 85" width="7.467" height="2.662" transform="translate(38.795 3.733) rotate(-29.995)" fill="#691a5a"></rect></g><g id="Group_90" data-name="Group 90" transform="translate(11.914 2.835)"><rect id="Rectangle_86" data-name="Rectangle 86" width="7.466" height="2.662" transform="translate(0 45.262) rotate(-60.005)" fill="#691a5a"></rect><rect id="Rectangle_87" data-name="Rectangle 87" width="7.466" height="2.662" transform="translate(22.399 6.466) rotate(-60.005)" fill="#691a5a"></rect></g></g><g id="DETAIL-2" data-name="DETAIL" transform="translate(1166.004 178.862)"><g id="Group_92" data-name="Group 92" transform="translate(24.801)"><rect id="Rectangle_88" data-name="Rectangle 88" width="2.662" height="7.466" fill="#691a5a"></rect><rect id="Rectangle_89" data-name="Rectangle 89" width="2.662" height="7.466" transform="translate(0 44.798)" fill="#691a5a"></rect></g><g id="Group_93" data-name="Group 93" transform="translate(11.913 2.836)"><rect id="Rectangle_90" data-name="Rectangle 90" width="2.662" height="7.466" transform="translate(0 1.331) rotate(-29.999)" fill="#691a5a"></rect><rect id="Rectangle_91" data-name="Rectangle 91" width="2.662" height="7.466" transform="translate(22.399 40.127) rotate(-29.999)" fill="#691a5a"></rect></g><g id="Group_94" data-name="Group 94" transform="translate(2.835 11.914)"><rect id="Rectangle_92" data-name="Rectangle 92" width="2.662" height="7.466" transform="matrix(0.5, -0.866, 0.866, 0.5, 0, 2.306)" fill="#691a5a"></rect><rect id="Rectangle_93" data-name="Rectangle 93" width="2.662" height="7.465" transform="matrix(0.5, -0.866, 0.866, 0.5, 38.796, 24.704)" fill="#691a5a"></rect></g><g id="Group_95" data-name="Group 95" transform="translate(0 24.801)"><rect id="Rectangle_94" data-name="Rectangle 94" width="7.466" height="2.662" fill="#691a5a"></rect><rect id="Rectangle_95" data-name="Rectangle 95" width="7.466" height="2.662" transform="translate(44.798)" fill="#691a5a"></rect></g><g id="Group_96" data-name="Group 96" transform="translate(2.835 11.914)"><rect id="Rectangle_96" data-name="Rectangle 96" width="7.466" height="2.662" transform="translate(0 26.131) rotate(-29.995)" fill="#691a5a"></rect><rect id="Rectangle_97" data-name="Rectangle 97" width="7.465" height="2.662" transform="translate(38.796 3.732) rotate(-29.995)" fill="#691a5a"></rect></g><g id="Group_97" data-name="Group 97" transform="translate(11.913 2.836)"><rect id="Rectangle_98" data-name="Rectangle 98" width="7.466" height="2.662" transform="matrix(0.5, -0.866, 0.866, 0.5, 0, 45.261)" fill="#691a5a"></rect><rect id="Rectangle_99" data-name="Rectangle 99" width="7.466" height="2.662" transform="translate(22.399 6.466) rotate(-60.005)" fill="#691a5a"></rect></g></g><g id="PAIR_LAPTOP" data-name="PAIR LAPTOP" transform="translate(1080.163 446.994)"><path id="Path_168" data-name="Path 168" d="M921.935,348.078V564.819H593.065V348.078Z" transform="translate(-589.917 -347.932)" fill="#b9b9b9"></path><path id="Path_169" data-name="Path 169" d="M921.936,401.509v48.344H593.065Z" transform="translate(-589.917 -232.966)" fill="#dedede"></path><path id="Path_400" data-name="Path 400" d="M1396.652,446.684a19.351,19.351,0,0,1-3.735-11.224,18.878,18.878,0,0,0-.159-2.315,18.4,18.4,0,0,0-15.985-15.795,18.064,18.064,0,0,0-1.07-3.892c2.123.25,6.873-.1,11.625-6.63a12.339,12.339,0,0,0-12.179,5.354,16.23,16.23,0,0,0-4.936-6.01l-.889,1.329a15.125,15.125,0,0,1,4.754,6.181,16.383,16.383,0,0,1,1.058,3.566c-.309.017-.616.033-.927.064a18.407,18.407,0,0,0-16.263,15.838,18.831,18.831,0,0,0-.159,2.315,19.352,19.352,0,0,1-3.735,11.223,26.353,26.353,0,1,0,42.6,0Z" transform="translate(-1201.804 -345.809)" fill="#fff"></path></g><g id="LAMP" transform="translate(914.087 440.994)"><g id="Group_196" data-name="Group 196" transform="translate(102.466 41.775)"><path id="Path_416" data-name="Path 416" d="M1436.626,193.046a17.131,17.131,0,0,0,18.833-21.621Z" transform="translate(-1436.626 -171.425)" fill="#f0cc2e"></path></g><path id="Path_417" data-name="Path 417" d="M1254.1,257.953h-4.395V251.6h-3.638L1182,167.511l37.671-56.683v-8.014l6.073-6.935a79.746,79.746,0,0,0,12.236,22.735,81.026,81.026,0,0,0,10.985,11.641l44.318-48.68a74.665,74.665,0,0,0-44.676-17.99C1242.018,54.764,1227.374,53,1227.374,53L1210.53,70.285a26.186,26.186,0,0,0,12.2,18.112l-7.643,8.726-10.561,2.543-44.53,70.262,61.384,81.674h-4.247v6.349h-4.76v7.408h-9.521v11.5H1265.1v-11.49h-10.985Zm-84.033-86.64-1.293-1.716,40.428-63.785,3.15-.758v3.709l-38.66,58.167Zm4.458,5.931,3.023-3.655,59.435,78.015h-6.572Z" transform="translate(-1159.994 -53)" fill="#2f2f2f"></path></g><g id="DESK" transform="translate(782.107 662.756)"><rect id="Rectangle_271" data-name="Rectangle 271" width="872.393" height="30.543" rx="8.623" transform="translate(0 1.644)" fill="#401037"></rect><g id="Mask_Group_1" data-name="Mask Group 1" transform="translate(-0.296 -32.641)" clip-path="url(#clip-path)"><g id="Group_35" data-name="Group 35" transform="translate(72.111 37.908)"><path id="Path_166" data-name="Path 166" d="M403.992,416.578l-2.479,18.967L354.628,779.622h-11.9l35.2-363.044Z" transform="translate(-342.725 -416.578)" fill="#401037"></path><path id="Path_167" data-name="Path 167" d="M835.306,416.578l2.479,18.967L884.67,779.622h11.9l-35.19-363.044Z" transform="translate(-182.469 -416.578)" fill="#401037"></path></g></g></g></g></svg> 